<svg width="34" height="35" fill="none" xmlns="http://www.w3.org/2000/svg">
  <symbol id="modal-icon">
    <path d="M19.025 14.479c-.767 0-1.36.594-1.36 1.328 0 .733.593 1.328 1.36 1.328.701 0 1.295-.595 1.295-1.328 0-.734-.594-1.329-1.295-1.329Zm-9.296 0c-.767 0-1.362.594-1.362 1.328 0 .733.595 1.328 1.362 1.328.7 0 1.294-.595 1.294-1.328 0-.734-.594-1.329-1.294-1.329Z" fill="#fff"/><path d="M29.684 11.955a11.419 11.419 0 0 0-6.276-4.316v.003a12.18 12.18 0 0 0-1.925-1.73C16.047 1.961 8.417 3.166 4.449 8.602c-3.197 4.416-3.061 10.356.2 14.576l.026 4.402a1.06 1.06 0 0 0 1.381 1.006l4.204-1.324a12.18 12.18 0 0 0 3.403.684l-.017.013a11.538 11.538 0 0 0 10.393 1.627l4.22 1.375a1.061 1.061 0 0 0 1.391-1.01v-4.449a11.484 11.484 0 0 0 .034-13.547Zm-18.96 12.95-.398-.167-3.287 1.03-.033-3.454-.266-.298c-2.809-3.427-2.995-8.364-.365-11.987 3.2-4.39 9.337-5.359 13.713-2.191 4.39 3.19 5.362 9.317 2.191 13.68a9.872 9.872 0 0 1-11.554 3.386Zm16.768-.565-.265.332.033 3.453-3.254-1.096-.398.166a9.17 9.17 0 0 1-5.678.233l-.007-.004a12.195 12.195 0 0 0 6.282-4.479 12.18 12.18 0 0 0 1.474-11.634l.02.013a8.974 8.974 0 0 1 2.059 2.059 9.013 9.013 0 0 1-.266 10.957Z" fill="#fff"/><path d="M14.377 14.479c-.767 0-1.361.594-1.361 1.328 0 .733.594 1.328 1.361 1.328.7 0 1.295-.595 1.295-1.328 0-.734-.595-1.329-1.295-1.329Z" fill="#fff"/>
  </symbol>
</svg>