<svg width="26" height="22" fill="none" xmlns="http://www.w3.org/2000/svg"><path d="M18.273.107a3.75 3.75 0 0 1 3.744 3.53l.006.22v2.5a3.75 3.75 0 0 1 3.744 3.53l.006.22v5a3.75 3.75 0 0 1-3.53 3.744l-.22.006v1.208c0 1.275-1.428 1.992-2.442 1.291l-.12-.09-2.89-2.409h-4.548a3.736 3.736 0 0 1-2.497-.952l-.175-.168-2.328 1.745c-.988.742-2.382.094-2.492-1.098l-.008-.152v-1.875a3.75 3.75 0 0 1-3.743-3.53l-.007-.22v-8.75A3.75 3.75 0 0 1 4.303.114l.22-.007h13.75Zm3.75 8.75h-10a1.25 1.25 0 0 0-1.25 1.25v5a1.25 1.25 0 0 0 1.25 1.25h4.548a2.5 2.5 0 0 1 1.6.58l1.36 1.133a1.875 1.875 0 0 1 1.867-1.713h.625a1.25 1.25 0 0 0 1.25-1.25v-5a1.25 1.25 0 0 0-1.25-1.25Zm-3.75-6.25H4.523a1.25 1.25 0 0 0-1.25 1.25v8.75a1.25 1.25 0 0 0 1.25 1.25h.625a1.875 1.875 0 0 1 1.875 1.875v.625l1.263-.946a3.799 3.799 0 0 1-.013-.304v-5a3.75 3.75 0 0 1 3.75-3.75h7.5v-2.5a1.25 1.25 0 0 0-1.25-1.25Z" fill="#000"/></svg>