<svg width="25" height="26" fill="none" xmlns="http://www.w3.org/2000/svg"><path d="M12.273.92a12.187 12.187 0 0 0 0 24.375c2.521 0 5.168-.76 7.082-2.03a.939.939 0 0 0-1.038-1.563c-1.59 1.06-3.91 1.718-6.044 1.718a10.313 10.313 0 1 1 10.313-10.313c0 3.1-1.275 3.75-2.344 3.75s-2.344-.65-2.344-3.75V8.42a.937.937 0 1 0-1.875 0v.5a5.625 5.625 0 1 0 .695 7.628c.704 1.406 1.916 2.184 3.524 2.184 2.642 0 4.219-2.102 4.219-5.625A12.2 12.2 0 0 0 12.273.92Zm0 15.937a3.75 3.75 0 1 1 0-7.5 3.75 3.75 0 0 1 0 7.5Z" fill="#000"/></svg>